<mxfile host="app.diagrams.net" modified="2022-04-11T05:23:51.838Z" agent="5.0 (Windows NT 10.0; Win64; x64) AppleWebKit/537.36 (KHTML, like Gecko) Chrome/100.0.4896.75 Safari/537.36" etag="3nFzAcTNBTw_TffiSrsW" version="17.4.2" type="github">
  <diagram id="QY8hSy0JVgbYP2YThuza" name="Page-1">
    <mxGraphModel dx="2058" dy="643" grid="1" gridSize="10" guides="1" tooltips="1" connect="1" arrows="1" fold="1" page="1" pageScale="1" pageWidth="827" pageHeight="1169" math="0" shadow="0">
      <root>
        <mxCell id="0" />
        <mxCell id="1" parent="0" />
        <mxCell id="JlKcYGilHKLKj-nciFxg-1" value="&lt;h2 style=&quot;box-sizing: border-box ; margin-top: -65px ; padding-top: 65px&quot;&gt;Receba notificações&lt;/h2&gt;" style="rounded=0;whiteSpace=wrap;html=1;" parent="1" vertex="1">
          <mxGeometry x="-780" width="150" height="60" as="geometry" />
        </mxCell>
        <mxCell id="JlKcYGilHKLKj-nciFxg-7" style="edgeStyle=orthogonalEdgeStyle;rounded=0;orthogonalLoop=1;jettySize=auto;html=1;exitX=0.5;exitY=1;exitDx=0;exitDy=0;entryX=0.5;entryY=0;entryDx=0;entryDy=0;" parent="1" source="JlKcYGilHKLKj-nciFxg-2" target="JlKcYGilHKLKj-nciFxg-5" edge="1">
          <mxGeometry relative="1" as="geometry" />
        </mxCell>
        <mxCell id="JlKcYGilHKLKj-nciFxg-2" value="&lt;pre class=&quot; details__code-terminal-json language-javascript&quot; style=&quot;box-sizing: border-box ; max-width: 100% ; overflow: auto ; margin-top: 16px ; margin-bottom: 30px ; max-height: 450px ; overflow-wrap: normal ; border-radius: 3px ; line-height: 1.5 ; text-shadow: rgb(0 , 0 , 0) 0px -0.1em 0.2em ; word-break: normal ; padding: 1em&quot;&gt;&lt;div&gt;&lt;br&gt;&lt;/div&gt;&lt;div&gt;&lt;span style=&quot;font-family: &amp;#34;helvetica&amp;#34; ; white-space: normal&quot;&gt;{&lt;/span&gt;&lt;/div&gt;&lt;span style=&quot;background-image: none ; box-sizing: border-box ; border-radius: 3px ; line-height: 1.5 ; text-shadow: rgb(0 , 0 , 0) 0px -0.1em 0.2em&quot;&gt;   &lt;/span&gt;&lt;span class=&quot;token string&quot; style=&quot;background-image: none ; box-sizing: border-box ; overflow-wrap: normal ; border-radius: 3px ; line-height: 1.5 ; text-shadow: rgb(0 , 0 , 0) 0px -0.1em 0.2em ; word-break: normal&quot;&gt;&quot;resource&quot;&lt;/span&gt;&lt;span class=&quot;token punctuation&quot; style=&quot;background-image: none ; box-sizing: border-box ; overflow-wrap: normal ; border-radius: 3px ; line-height: 1.5 ; text-shadow: rgb(0 , 0 , 0) 0px -0.1em 0.2em ; word-break: normal&quot;&gt;:&lt;/span&gt;&lt;span style=&quot;background-image: none ; box-sizing: border-box ; border-radius: 3px ; line-height: 1.5 ; text-shadow: rgb(0 , 0 , 0) 0px -0.1em 0.2em&quot;&gt; &lt;/span&gt;&lt;span class=&quot;token string&quot; style=&quot;background-image: none ; box-sizing: border-box ; overflow-wrap: normal ; border-radius: 3px ; line-height: 1.5 ; text-shadow: rgb(0 , 0 , 0) 0px -0.1em 0.2em ; word-break: normal&quot;&gt;&quot;/items/MLA686791111&quot;&lt;/span&gt;&lt;span class=&quot;token punctuation&quot; style=&quot;background-image: none ; box-sizing: border-box ; overflow-wrap: normal ; border-radius: 3px ; line-height: 1.5 ; text-shadow: rgb(0 , 0 , 0) 0px -0.1em 0.2em ; word-break: normal&quot;&gt;,&lt;/span&gt;&lt;span style=&quot;background-image: none ; box-sizing: border-box ; border-radius: 3px ; line-height: 1.5 ; text-shadow: rgb(0 , 0 , 0) 0px -0.1em 0.2em&quot;&gt;&lt;br&gt;   &lt;/span&gt;&lt;span class=&quot;token string&quot; style=&quot;background-image: none ; box-sizing: border-box ; overflow-wrap: normal ; border-radius: 3px ; line-height: 1.5 ; text-shadow: rgb(0 , 0 , 0) 0px -0.1em 0.2em ; word-break: normal&quot;&gt;&quot;user_id&quot;&lt;/span&gt;&lt;span class=&quot;token punctuation&quot; style=&quot;background-image: none ; box-sizing: border-box ; overflow-wrap: normal ; border-radius: 3px ; line-height: 1.5 ; text-shadow: rgb(0 , 0 , 0) 0px -0.1em 0.2em ; word-break: normal&quot;&gt;:&lt;/span&gt;&lt;span style=&quot;background-image: none ; box-sizing: border-box ; border-radius: 3px ; line-height: 1.5 ; text-shadow: rgb(0 , 0 , 0) 0px -0.1em 0.2em&quot;&gt; &lt;/span&gt;&lt;span class=&quot;token number&quot; style=&quot;background-image: none ; box-sizing: border-box ; overflow-wrap: normal ; border-radius: 3px ; line-height: 1.5 ; text-shadow: rgb(0 , 0 , 0) 0px -0.1em 0.2em ; word-break: normal&quot;&gt;123456789&lt;/span&gt;&lt;span class=&quot;token punctuation&quot; style=&quot;background-image: none ; box-sizing: border-box ; overflow-wrap: normal ; border-radius: 3px ; line-height: 1.5 ; text-shadow: rgb(0 , 0 , 0) 0px -0.1em 0.2em ; word-break: normal&quot;&gt;,&lt;/span&gt;&lt;span style=&quot;background-image: none ; box-sizing: border-box ; border-radius: 3px ; line-height: 1.5 ; text-shadow: rgb(0 , 0 , 0) 0px -0.1em 0.2em&quot;&gt;&lt;br&gt;   &lt;/span&gt;&lt;span class=&quot;token string&quot; style=&quot;background-image: none ; box-sizing: border-box ; overflow-wrap: normal ; border-radius: 3px ; line-height: 1.5 ; text-shadow: rgb(0 , 0 , 0) 0px -0.1em 0.2em ; word-break: normal&quot;&gt;&quot;topic&quot;&lt;/span&gt;&lt;span class=&quot;token punctuation&quot; style=&quot;background-image: none ; box-sizing: border-box ; overflow-wrap: normal ; border-radius: 3px ; line-height: 1.5 ; text-shadow: rgb(0 , 0 , 0) 0px -0.1em 0.2em ; word-break: normal&quot;&gt;:&lt;/span&gt;&lt;span style=&quot;background-image: none ; box-sizing: border-box ; border-radius: 3px ; line-height: 1.5 ; text-shadow: rgb(0 , 0 , 0) 0px -0.1em 0.2em&quot;&gt; &lt;/span&gt;&lt;span class=&quot;token string&quot; style=&quot;background-image: none ; box-sizing: border-box ; overflow-wrap: normal ; border-radius: 3px ; line-height: 1.5 ; text-shadow: rgb(0 , 0 , 0) 0px -0.1em 0.2em ; word-break: normal&quot;&gt;&quot;items&quot;&lt;/span&gt;&lt;span class=&quot;token punctuation&quot; style=&quot;background-image: none ; box-sizing: border-box ; overflow-wrap: normal ; border-radius: 3px ; line-height: 1.5 ; text-shadow: rgb(0 , 0 , 0) 0px -0.1em 0.2em ; word-break: normal&quot;&gt;,&lt;/span&gt;&lt;span style=&quot;background-image: none ; box-sizing: border-box ; border-radius: 3px ; line-height: 1.5 ; text-shadow: rgb(0 , 0 , 0) 0px -0.1em 0.2em&quot;&gt;&lt;br&gt;   &lt;/span&gt;&lt;span class=&quot;token string&quot; style=&quot;background-image: none ; box-sizing: border-box ; overflow-wrap: normal ; border-radius: 3px ; line-height: 1.5 ; text-shadow: rgb(0 , 0 , 0) 0px -0.1em 0.2em ; word-break: normal&quot;&gt;&quot;application_id&quot;&lt;/span&gt;&lt;span class=&quot;token punctuation&quot; style=&quot;background-image: none ; box-sizing: border-box ; overflow-wrap: normal ; border-radius: 3px ; line-height: 1.5 ; text-shadow: rgb(0 , 0 , 0) 0px -0.1em 0.2em ; word-break: normal&quot;&gt;:&lt;/span&gt;&lt;span style=&quot;background-image: none ; box-sizing: border-box ; border-radius: 3px ; line-height: 1.5 ; text-shadow: rgb(0 , 0 , 0) 0px -0.1em 0.2em&quot;&gt; &lt;/span&gt;&lt;span class=&quot;token number&quot; style=&quot;background-image: none ; box-sizing: border-box ; overflow-wrap: normal ; border-radius: 3px ; line-height: 1.5 ; text-shadow: rgb(0 , 0 , 0) 0px -0.1em 0.2em ; word-break: normal&quot;&gt;2069392825111111&lt;/span&gt;&lt;span class=&quot;token punctuation&quot; style=&quot;background-image: none ; box-sizing: border-box ; overflow-wrap: normal ; border-radius: 3px ; line-height: 1.5 ; text-shadow: rgb(0 , 0 , 0) 0px -0.1em 0.2em ; word-break: normal&quot;&gt;,&lt;/span&gt;&lt;span style=&quot;background-image: none ; box-sizing: border-box ; border-radius: 3px ; line-height: 1.5 ; text-shadow: rgb(0 , 0 , 0) 0px -0.1em 0.2em&quot;&gt;&lt;br&gt;   &lt;/span&gt;&lt;span class=&quot;token string&quot; style=&quot;background-image: none ; box-sizing: border-box ; overflow-wrap: normal ; border-radius: 3px ; line-height: 1.5 ; text-shadow: rgb(0 , 0 , 0) 0px -0.1em 0.2em ; word-break: normal&quot;&gt;&quot;attempts&quot;&lt;/span&gt;&lt;span class=&quot;token punctuation&quot; style=&quot;background-image: none ; box-sizing: border-box ; overflow-wrap: normal ; border-radius: 3px ; line-height: 1.5 ; text-shadow: rgb(0 , 0 , 0) 0px -0.1em 0.2em ; word-break: normal&quot;&gt;:&lt;/span&gt;&lt;span style=&quot;background-image: none ; box-sizing: border-box ; border-radius: 3px ; line-height: 1.5 ; text-shadow: rgb(0 , 0 , 0) 0px -0.1em 0.2em&quot;&gt; &lt;/span&gt;&lt;span class=&quot;token number&quot; style=&quot;background-image: none ; box-sizing: border-box ; overflow-wrap: normal ; border-radius: 3px ; line-height: 1.5 ; text-shadow: rgb(0 , 0 , 0) 0px -0.1em 0.2em ; word-break: normal&quot;&gt;1&lt;/span&gt;&lt;span class=&quot;token punctuation&quot; style=&quot;background-image: none ; box-sizing: border-box ; overflow-wrap: normal ; border-radius: 3px ; line-height: 1.5 ; text-shadow: rgb(0 , 0 , 0) 0px -0.1em 0.2em ; word-break: normal&quot;&gt;,&lt;/span&gt;&lt;span style=&quot;background-image: none ; box-sizing: border-box ; border-radius: 3px ; line-height: 1.5 ; text-shadow: rgb(0 , 0 , 0) 0px -0.1em 0.2em&quot;&gt;&lt;br&gt;   &lt;/span&gt;&lt;span class=&quot;token string&quot; style=&quot;background-image: none ; box-sizing: border-box ; overflow-wrap: normal ; border-radius: 3px ; line-height: 1.5 ; text-shadow: rgb(0 , 0 , 0) 0px -0.1em 0.2em ; word-break: normal&quot;&gt;&quot;sent&quot;&lt;/span&gt;&lt;span class=&quot;token punctuation&quot; style=&quot;background-image: none ; box-sizing: border-box ; overflow-wrap: normal ; border-radius: 3px ; line-height: 1.5 ; text-shadow: rgb(0 , 0 , 0) 0px -0.1em 0.2em ; word-break: normal&quot;&gt;:&lt;/span&gt;&lt;span style=&quot;background-image: none ; box-sizing: border-box ; border-radius: 3px ; line-height: 1.5 ; text-shadow: rgb(0 , 0 , 0) 0px -0.1em 0.2em&quot;&gt; &lt;/span&gt;&lt;span class=&quot;token string&quot; style=&quot;background-image: none ; box-sizing: border-box ; overflow-wrap: normal ; border-radius: 3px ; line-height: 1.5 ; text-shadow: rgb(0 , 0 , 0) 0px -0.1em 0.2em ; word-break: normal&quot;&gt;&quot;2017-10-09T13:44:33.006Z&quot;&lt;/span&gt;&lt;span class=&quot;token punctuation&quot; style=&quot;background-image: none ; box-sizing: border-box ; overflow-wrap: normal ; border-radius: 3px ; line-height: 1.5 ; text-shadow: rgb(0 , 0 , 0) 0px -0.1em 0.2em ; word-break: normal&quot;&gt;,&lt;/span&gt;&lt;span style=&quot;background-image: none ; box-sizing: border-box ; border-radius: 3px ; line-height: 1.5 ; text-shadow: rgb(0 , 0 , 0) 0px -0.1em 0.2em&quot;&gt;&lt;br&gt;   &lt;/span&gt;&lt;span class=&quot;token string&quot; style=&quot;background-image: none ; box-sizing: border-box ; overflow-wrap: normal ; border-radius: 3px ; line-height: 1.5 ; text-shadow: rgb(0 , 0 , 0) 0px -0.1em 0.2em ; word-break: normal&quot;&gt;&quot;received&quot;&lt;/span&gt;&lt;span class=&quot;token punctuation&quot; style=&quot;background-image: none ; box-sizing: border-box ; overflow-wrap: normal ; border-radius: 3px ; line-height: 1.5 ; text-shadow: rgb(0 , 0 , 0) 0px -0.1em 0.2em ; word-break: normal&quot;&gt;:&lt;/span&gt;&lt;span style=&quot;background-image: none ; box-sizing: border-box ; border-radius: 3px ; line-height: 1.5 ; text-shadow: rgb(0 , 0 , 0) 0px -0.1em 0.2em&quot;&gt; &lt;/span&gt;&lt;span class=&quot;token string&quot; style=&quot;background-image: none ; box-sizing: border-box ; overflow-wrap: normal ; border-radius: 3px ; line-height: 1.5 ; text-shadow: rgb(0 , 0 , 0) 0px -0.1em 0.2em ; word-break: normal&quot;&gt;&quot;2017-10-09T13:44:32.984Z&quot;&lt;/span&gt;&lt;span style=&quot;background-image: none ; box-sizing: border-box ; border-radius: 3px ; line-height: 1.5 ; text-shadow: rgb(0 , 0 , 0) 0px -0.1em 0.2em&quot;&gt;&lt;br&gt;&lt;/span&gt;&lt;span class=&quot;token punctuation&quot; style=&quot;background-image: none ; box-sizing: border-box ; overflow-wrap: normal ; border-radius: 3px ; line-height: 1.5 ; text-shadow: rgb(0 , 0 , 0) 0px -0.1em 0.2em ; word-break: normal&quot;&gt;}&lt;/span&gt;&lt;/pre&gt;" style="rounded=0;whiteSpace=wrap;html=1;align=left;" parent="1" vertex="1">
          <mxGeometry x="-780" y="120" width="350" height="190" as="geometry" />
        </mxCell>
        <mxCell id="JlKcYGilHKLKj-nciFxg-5" value="&lt;pre class=&quot; details__code-terminal-json language-javascript&quot; style=&quot;box-sizing: border-box ; max-width: 100% ; overflow: auto ; margin-top: 16px ; margin-bottom: 30px ; max-height: 450px ; overflow-wrap: normal ; border-radius: 3px ; line-height: 1.5 ; text-shadow: rgb(0 , 0 , 0) 0px -0.1em 0.2em ; word-break: normal ; padding: 1em&quot;&gt;&lt;span style=&quot;background-image: none ; box-sizing: border-box ; border-radius: 3px ; line-height: 1.5 ; text-shadow: rgb(0 , 0 , 0) 0px -0.1em 0.2em&quot;&gt;curl &lt;/span&gt;&lt;span class=&quot;token operator&quot; style=&quot;background-image: none ; box-sizing: border-box ; overflow-wrap: normal ; border-radius: 3px ; line-height: 1.5 ; text-shadow: rgb(0 , 0 , 0) 0px -0.1em 0.2em ; word-break: normal&quot;&gt;-&lt;/span&gt;&lt;span class=&quot;token constant&quot; style=&quot;background-image: none ; box-sizing: border-box ; overflow-wrap: normal ; border-radius: 3px ; line-height: 1.5 ; text-shadow: rgb(0 , 0 , 0) 0px -0.1em 0.2em ; word-break: normal&quot;&gt;X&lt;/span&gt;&lt;span style=&quot;background-image: none ; box-sizing: border-box ; border-radius: 3px ; line-height: 1.5 ; text-shadow: rgb(0 , 0 , 0) 0px -0.1em 0.2em&quot;&gt; &lt;/span&gt;&lt;span class=&quot;token constant&quot; style=&quot;background-image: none ; box-sizing: border-box ; overflow-wrap: normal ; border-radius: 3px ; line-height: 1.5 ; text-shadow: rgb(0 , 0 , 0) 0px -0.1em 0.2em ; word-break: normal&quot;&gt;GET&lt;/span&gt;&lt;span style=&quot;background-image: none ; box-sizing: border-box ; border-radius: 3px ; line-height: 1.5 ; text-shadow: rgb(0 , 0 , 0) 0px -0.1em 0.2em&quot;&gt; &lt;/span&gt;&lt;span class=&quot;token operator&quot; style=&quot;background-image: none ; box-sizing: border-box ; overflow-wrap: normal ; border-radius: 3px ; line-height: 1.5 ; text-shadow: rgb(0 , 0 , 0) 0px -0.1em 0.2em ; word-break: normal&quot;&gt;-&lt;/span&gt;&lt;span class=&quot;token constant&quot; style=&quot;background-image: none ; box-sizing: border-box ; overflow-wrap: normal ; border-radius: 3px ; line-height: 1.5 ; text-shadow: rgb(0 , 0 , 0) 0px -0.1em 0.2em ; word-break: normal&quot;&gt;H&lt;/span&gt;&lt;span style=&quot;background-image: none ; box-sizing: border-box ; border-radius: 3px ; line-height: 1.5 ; text-shadow: rgb(0 , 0 , 0) 0px -0.1em 0.2em&quot;&gt; &lt;/span&gt;&lt;span class=&quot;token string&quot; style=&quot;background-image: none ; box-sizing: border-box ; overflow-wrap: normal ; border-radius: 3px ; line-height: 1.5 ; text-shadow: rgb(0 , 0 , 0) 0px -0.1em 0.2em ; word-break: normal&quot;&gt;&#39;Authorization: Bearer $ACCESS_TOKEN&#39;&lt;/span&gt;&lt;span style=&quot;background-image: none ; box-sizing: border-box ; border-radius: 3px ; line-height: 1.5 ; text-shadow: rgb(0 , 0 , 0) 0px -0.1em 0.2em&quot;&gt; https&lt;/span&gt;&lt;span class=&quot;token punctuation&quot; style=&quot;background-image: none ; box-sizing: border-box ; overflow-wrap: normal ; border-radius: 3px ; line-height: 1.5 ; text-shadow: rgb(0 , 0 , 0) 0px -0.1em 0.2em ; word-break: normal&quot;&gt;:&lt;/span&gt;&lt;span class=&quot;token operator&quot; style=&quot;background-image: none ; box-sizing: border-box ; overflow-wrap: normal ; border-radius: 3px ; line-height: 1.5 ; text-shadow: rgb(0 , 0 , 0) 0px -0.1em 0.2em ; word-break: normal&quot;&gt;/&lt;/span&gt;&lt;span class=&quot;token operator&quot; style=&quot;background-image: none ; box-sizing: border-box ; overflow-wrap: normal ; border-radius: 3px ; line-height: 1.5 ; text-shadow: rgb(0 , 0 , 0) 0px -0.1em 0.2em ; word-break: normal&quot;&gt;/&lt;/span&gt;&lt;span style=&quot;background-image: none ; box-sizing: border-box ; border-radius: 3px ; line-height: 1.5 ; text-shadow: rgb(0 , 0 , 0) 0px -0.1em 0.2em&quot;&gt;api&lt;/span&gt;&lt;span class=&quot;token punctuation&quot; style=&quot;background-image: none ; box-sizing: border-box ; overflow-wrap: normal ; border-radius: 3px ; line-height: 1.5 ; text-shadow: rgb(0 , 0 , 0) 0px -0.1em 0.2em ; word-break: normal&quot;&gt;.&lt;/span&gt;&lt;span style=&quot;background-image: none ; box-sizing: border-box ; border-radius: 3px ; line-height: 1.5 ; text-shadow: rgb(0 , 0 , 0) 0px -0.1em 0.2em&quot;&gt;mercadolibre&lt;/span&gt;&lt;span class=&quot;token punctuation&quot; style=&quot;background-image: none ; box-sizing: border-box ; overflow-wrap: normal ; border-radius: 3px ; line-height: 1.5 ; text-shadow: rgb(0 , 0 , 0) 0px -0.1em 0.2em ; word-break: normal&quot;&gt;.&lt;/span&gt;&lt;span style=&quot;background-image: none ; box-sizing: border-box ; border-radius: 3px ; line-height: 1.5 ; text-shadow: rgb(0 , 0 , 0) 0px -0.1em 0.2em&quot;&gt;com&lt;/span&gt;&lt;span class=&quot;token operator&quot; style=&quot;background-image: none ; box-sizing: border-box ; overflow-wrap: normal ; border-radius: 3px ; line-height: 1.5 ; text-shadow: rgb(0 , 0 , 0) 0px -0.1em 0.2em ; word-break: normal&quot;&gt;/&lt;/span&gt;&lt;span style=&quot;background-image: none ; box-sizing: border-box ; border-radius: 3px ; line-height: 1.5 ; text-shadow: rgb(0 , 0 , 0) 0px -0.1em 0.2em&quot;&gt;items&lt;/span&gt;&lt;span class=&quot;token operator&quot; style=&quot;background-image: none ; box-sizing: border-box ; overflow-wrap: normal ; border-radius: 3px ; line-height: 1.5 ; text-shadow: rgb(0 , 0 , 0) 0px -0.1em 0.2em ; word-break: normal&quot;&gt;/&lt;/span&gt;&lt;span style=&quot;background-image: none ; box-sizing: border-box ; border-radius: 3px ; line-height: 1.5 ; text-shadow: rgb(0 , 0 , 0) 0px -0.1em 0.2em&quot;&gt;$&lt;/span&gt;&lt;span class=&quot;token constant&quot; style=&quot;background-image: none ; box-sizing: border-box ; overflow-wrap: normal ; border-radius: 3px ; line-height: 1.5 ; text-shadow: rgb(0 , 0 , 0) 0px -0.1em 0.2em ; word-break: normal&quot;&gt;ITEM_ID&lt;/span&gt;&lt;/pre&gt;" style="text;html=1;strokeColor=none;fillColor=none;align=center;verticalAlign=middle;whiteSpace=wrap;rounded=0;" parent="1" vertex="1">
          <mxGeometry x="-780" y="360" width="650" height="30" as="geometry" />
        </mxCell>
        <mxCell id="JlKcYGilHKLKj-nciFxg-12" style="edgeStyle=orthogonalEdgeStyle;rounded=0;orthogonalLoop=1;jettySize=auto;html=1;exitX=0.5;exitY=1;exitDx=0;exitDy=0;entryX=0.5;entryY=0;entryDx=0;entryDy=0;" parent="1" source="JlKcYGilHKLKj-nciFxg-8" target="JlKcYGilHKLKj-nciFxg-11" edge="1">
          <mxGeometry relative="1" as="geometry" />
        </mxCell>
        <mxCell id="JlKcYGilHKLKj-nciFxg-8" value="&lt;pre class=&quot; details__code-terminal-json language-javascript&quot; style=&quot;box-sizing: border-box ; max-width: 100% ; overflow: auto ; margin-top: 16px ; margin-bottom: 30px ; max-height: 450px ; overflow-wrap: normal ; border-radius: 3px ; line-height: 1.5 ; text-shadow: rgb(0 , 0 , 0) 0px -0.1em 0.2em ; word-break: normal ; padding: 1em&quot;&gt;&lt;span class=&quot;token punctuation&quot; style=&quot;background-image: none ; box-sizing: border-box ; overflow-wrap: normal ; border-radius: 3px ; line-height: 1.5 ; text-shadow: rgb(0 , 0 , 0) 0px -0.1em 0.2em ; word-break: normal&quot;&gt;{&lt;/span&gt;&lt;span style=&quot;background-image: none ; box-sizing: border-box ; border-radius: 3px ; line-height: 1.5 ; text-shadow: rgb(0 , 0 , 0) 0px -0.1em 0.2em&quot;&gt;&lt;br/&gt;  &lt;/span&gt;&lt;span class=&quot;token string&quot; style=&quot;background-image: none ; box-sizing: border-box ; overflow-wrap: normal ; border-radius: 3px ; line-height: 1.5 ; text-shadow: rgb(0 , 0 , 0) 0px -0.1em 0.2em ; word-break: normal&quot;&gt;&quot;resource&quot;&lt;/span&gt;&lt;span class=&quot;token punctuation&quot; style=&quot;background-image: none ; box-sizing: border-box ; overflow-wrap: normal ; border-radius: 3px ; line-height: 1.5 ; text-shadow: rgb(0 , 0 , 0) 0px -0.1em 0.2em ; word-break: normal&quot;&gt;:&lt;/span&gt;&lt;span class=&quot;token string&quot; style=&quot;background-image: none ; box-sizing: border-box ; overflow-wrap: normal ; border-radius: 3px ; line-height: 1.5 ; text-shadow: rgb(0 , 0 , 0) 0px -0.1em 0.2em ; word-break: normal&quot;&gt;&quot;/orders/2195160686&quot;&lt;/span&gt;&lt;span class=&quot;token punctuation&quot; style=&quot;background-image: none ; box-sizing: border-box ; overflow-wrap: normal ; border-radius: 3px ; line-height: 1.5 ; text-shadow: rgb(0 , 0 , 0) 0px -0.1em 0.2em ; word-break: normal&quot;&gt;,&lt;/span&gt;&lt;span style=&quot;background-image: none ; box-sizing: border-box ; border-radius: 3px ; line-height: 1.5 ; text-shadow: rgb(0 , 0 , 0) 0px -0.1em 0.2em&quot;&gt;&lt;br/&gt;  &lt;/span&gt;&lt;span class=&quot;token string&quot; style=&quot;background-image: none ; box-sizing: border-box ; overflow-wrap: normal ; border-radius: 3px ; line-height: 1.5 ; text-shadow: rgb(0 , 0 , 0) 0px -0.1em 0.2em ; word-break: normal&quot;&gt;&quot;user_id&quot;&lt;/span&gt;&lt;span class=&quot;token punctuation&quot; style=&quot;background-image: none ; box-sizing: border-box ; overflow-wrap: normal ; border-radius: 3px ; line-height: 1.5 ; text-shadow: rgb(0 , 0 , 0) 0px -0.1em 0.2em ; word-break: normal&quot;&gt;:&lt;/span&gt;&lt;span style=&quot;background-image: none ; box-sizing: border-box ; border-radius: 3px ; line-height: 1.5 ; text-shadow: rgb(0 , 0 , 0) 0px -0.1em 0.2em&quot;&gt; &lt;/span&gt;&lt;span class=&quot;token number&quot; style=&quot;background-image: none ; box-sizing: border-box ; overflow-wrap: normal ; border-radius: 3px ; line-height: 1.5 ; text-shadow: rgb(0 , 0 , 0) 0px -0.1em 0.2em ; word-break: normal&quot;&gt;468424240&lt;/span&gt;&lt;span class=&quot;token punctuation&quot; style=&quot;background-image: none ; box-sizing: border-box ; overflow-wrap: normal ; border-radius: 3px ; line-height: 1.5 ; text-shadow: rgb(0 , 0 , 0) 0px -0.1em 0.2em ; word-break: normal&quot;&gt;,&lt;/span&gt;&lt;span style=&quot;background-image: none ; box-sizing: border-box ; border-radius: 3px ; line-height: 1.5 ; text-shadow: rgb(0 , 0 , 0) 0px -0.1em 0.2em&quot;&gt;&lt;br/&gt;  &lt;/span&gt;&lt;span class=&quot;token string&quot; style=&quot;background-image: none ; box-sizing: border-box ; overflow-wrap: normal ; border-radius: 3px ; line-height: 1.5 ; text-shadow: rgb(0 , 0 , 0) 0px -0.1em 0.2em ; word-break: normal&quot;&gt;&quot;topic&quot;&lt;/span&gt;&lt;span class=&quot;token punctuation&quot; style=&quot;background-image: none ; box-sizing: border-box ; overflow-wrap: normal ; border-radius: 3px ; line-height: 1.5 ; text-shadow: rgb(0 , 0 , 0) 0px -0.1em 0.2em ; word-break: normal&quot;&gt;:&lt;/span&gt;&lt;span class=&quot;token string&quot; style=&quot;background-image: none ; box-sizing: border-box ; overflow-wrap: normal ; border-radius: 3px ; line-height: 1.5 ; text-shadow: rgb(0 , 0 , 0) 0px -0.1em 0.2em ; word-break: normal&quot;&gt;&quot;orders_v2&quot;&lt;/span&gt;&lt;span class=&quot;token punctuation&quot; style=&quot;background-image: none ; box-sizing: border-box ; overflow-wrap: normal ; border-radius: 3px ; line-height: 1.5 ; text-shadow: rgb(0 , 0 , 0) 0px -0.1em 0.2em ; word-break: normal&quot;&gt;,&lt;/span&gt;&lt;span style=&quot;background-image: none ; box-sizing: border-box ; border-radius: 3px ; line-height: 1.5 ; text-shadow: rgb(0 , 0 , 0) 0px -0.1em 0.2em&quot;&gt;&lt;br/&gt;  &lt;/span&gt;&lt;span class=&quot;token string&quot; style=&quot;background-image: none ; box-sizing: border-box ; overflow-wrap: normal ; border-radius: 3px ; line-height: 1.5 ; text-shadow: rgb(0 , 0 , 0) 0px -0.1em 0.2em ; word-break: normal&quot;&gt;&quot;application_id&quot;&lt;/span&gt;&lt;span class=&quot;token punctuation&quot; style=&quot;background-image: none ; box-sizing: border-box ; overflow-wrap: normal ; border-radius: 3px ; line-height: 1.5 ; text-shadow: rgb(0 , 0 , 0) 0px -0.1em 0.2em ; word-break: normal&quot;&gt;:&lt;/span&gt;&lt;span style=&quot;background-image: none ; box-sizing: border-box ; border-radius: 3px ; line-height: 1.5 ; text-shadow: rgb(0 , 0 , 0) 0px -0.1em 0.2em&quot;&gt; &lt;/span&gt;&lt;span class=&quot;token number&quot; style=&quot;background-image: none ; box-sizing: border-box ; overflow-wrap: normal ; border-radius: 3px ; line-height: 1.5 ; text-shadow: rgb(0 , 0 , 0) 0px -0.1em 0.2em ; word-break: normal&quot;&gt;5503910054141466&lt;/span&gt;&lt;span class=&quot;token punctuation&quot; style=&quot;background-image: none ; box-sizing: border-box ; overflow-wrap: normal ; border-radius: 3px ; line-height: 1.5 ; text-shadow: rgb(0 , 0 , 0) 0px -0.1em 0.2em ; word-break: normal&quot;&gt;,&lt;/span&gt;&lt;span style=&quot;background-image: none ; box-sizing: border-box ; border-radius: 3px ; line-height: 1.5 ; text-shadow: rgb(0 , 0 , 0) 0px -0.1em 0.2em&quot;&gt;&lt;br/&gt;  &lt;/span&gt;&lt;span class=&quot;token string&quot; style=&quot;background-image: none ; box-sizing: border-box ; overflow-wrap: normal ; border-radius: 3px ; line-height: 1.5 ; text-shadow: rgb(0 , 0 , 0) 0px -0.1em 0.2em ; word-break: normal&quot;&gt;&quot;attempts&quot;&lt;/span&gt;&lt;span class=&quot;token punctuation&quot; style=&quot;background-image: none ; box-sizing: border-box ; overflow-wrap: normal ; border-radius: 3px ; line-height: 1.5 ; text-shadow: rgb(0 , 0 , 0) 0px -0.1em 0.2em ; word-break: normal&quot;&gt;:&lt;/span&gt;&lt;span class=&quot;token number&quot; style=&quot;background-image: none ; box-sizing: border-box ; overflow-wrap: normal ; border-radius: 3px ; line-height: 1.5 ; text-shadow: rgb(0 , 0 , 0) 0px -0.1em 0.2em ; word-break: normal&quot;&gt;1&lt;/span&gt;&lt;span class=&quot;token punctuation&quot; style=&quot;background-image: none ; box-sizing: border-box ; overflow-wrap: normal ; border-radius: 3px ; line-height: 1.5 ; text-shadow: rgb(0 , 0 , 0) 0px -0.1em 0.2em ; word-break: normal&quot;&gt;,&lt;/span&gt;&lt;span style=&quot;background-image: none ; box-sizing: border-box ; border-radius: 3px ; line-height: 1.5 ; text-shadow: rgb(0 , 0 , 0) 0px -0.1em 0.2em&quot;&gt;&lt;br/&gt;  &lt;/span&gt;&lt;span class=&quot;token string&quot; style=&quot;background-image: none ; box-sizing: border-box ; overflow-wrap: normal ; border-radius: 3px ; line-height: 1.5 ; text-shadow: rgb(0 , 0 , 0) 0px -0.1em 0.2em ; word-break: normal&quot;&gt;&quot;sent&quot;&lt;/span&gt;&lt;span class=&quot;token punctuation&quot; style=&quot;background-image: none ; box-sizing: border-box ; overflow-wrap: normal ; border-radius: 3px ; line-height: 1.5 ; text-shadow: rgb(0 , 0 , 0) 0px -0.1em 0.2em ; word-break: normal&quot;&gt;:&lt;/span&gt;&lt;span class=&quot;token string&quot; style=&quot;background-image: none ; box-sizing: border-box ; overflow-wrap: normal ; border-radius: 3px ; line-height: 1.5 ; text-shadow: rgb(0 , 0 , 0) 0px -0.1em 0.2em ; word-break: normal&quot;&gt;&quot;2019-10-30T16:19:20.129Z&quot;&lt;/span&gt;&lt;span class=&quot;token punctuation&quot; style=&quot;background-image: none ; box-sizing: border-box ; overflow-wrap: normal ; border-radius: 3px ; line-height: 1.5 ; text-shadow: rgb(0 , 0 , 0) 0px -0.1em 0.2em ; word-break: normal&quot;&gt;,&lt;/span&gt;&lt;span style=&quot;background-image: none ; box-sizing: border-box ; border-radius: 3px ; line-height: 1.5 ; text-shadow: rgb(0 , 0 , 0) 0px -0.1em 0.2em&quot;&gt;&lt;br/&gt;  &lt;/span&gt;&lt;span class=&quot;token string&quot; style=&quot;background-image: none ; box-sizing: border-box ; overflow-wrap: normal ; border-radius: 3px ; line-height: 1.5 ; text-shadow: rgb(0 , 0 , 0) 0px -0.1em 0.2em ; word-break: normal&quot;&gt;&quot;received&quot;&lt;/span&gt;&lt;span class=&quot;token punctuation&quot; style=&quot;background-image: none ; box-sizing: border-box ; overflow-wrap: normal ; border-radius: 3px ; line-height: 1.5 ; text-shadow: rgb(0 , 0 , 0) 0px -0.1em 0.2em ; word-break: normal&quot;&gt;:&lt;/span&gt;&lt;span class=&quot;token string&quot; style=&quot;background-image: none ; box-sizing: border-box ; overflow-wrap: normal ; border-radius: 3px ; line-height: 1.5 ; text-shadow: rgb(0 , 0 , 0) 0px -0.1em 0.2em ; word-break: normal&quot;&gt;&quot;2019-10-30T16:19:20.106Z&quot;&lt;/span&gt;&lt;span style=&quot;background-image: none ; box-sizing: border-box ; border-radius: 3px ; line-height: 1.5 ; text-shadow: rgb(0 , 0 , 0) 0px -0.1em 0.2em&quot;&gt;&lt;br/&gt;&lt;/span&gt;&lt;span class=&quot;token punctuation&quot; style=&quot;background-image: none ; box-sizing: border-box ; overflow-wrap: normal ; border-radius: 3px ; line-height: 1.5 ; text-shadow: rgb(0 , 0 , 0) 0px -0.1em 0.2em ; word-break: normal&quot;&gt;}&lt;/span&gt;&lt;/pre&gt;" style="rounded=0;whiteSpace=wrap;html=1;align=left;" parent="1" vertex="1">
          <mxGeometry x="-310" y="30" width="290" height="190" as="geometry" />
        </mxCell>
        <mxCell id="JlKcYGilHKLKj-nciFxg-9" value="&lt;h3 id=&quot;orders_v2&quot; style=&quot;box-sizing: border-box ; margin-top: -65px ; padding-top: 65px&quot;&gt;orders_v2&lt;/h3&gt;" style="text;html=1;strokeColor=none;fillColor=none;align=left;verticalAlign=middle;whiteSpace=wrap;rounded=0;" parent="1" vertex="1">
          <mxGeometry x="-310" y="10" width="80" height="20" as="geometry" />
        </mxCell>
        <mxCell id="JlKcYGilHKLKj-nciFxg-10" value="&lt;span&gt;&lt;b&gt;ITEMS&lt;/b&gt;&lt;/span&gt;" style="text;html=1;strokeColor=none;fillColor=none;align=left;verticalAlign=middle;whiteSpace=wrap;rounded=0;" parent="1" vertex="1">
          <mxGeometry x="-780" y="90" width="60" height="30" as="geometry" />
        </mxCell>
        <mxCell id="JlKcYGilHKLKj-nciFxg-11" value="&lt;pre class=&quot; details__code-terminal-json language-javascript&quot; style=&quot;text-align: left ; box-sizing: border-box ; max-width: 100% ; overflow: auto ; margin-top: 16px ; margin-bottom: 30px ; max-height: 450px ; overflow-wrap: normal ; border-radius: 3px ; line-height: 1.5 ; text-shadow: rgb(0 , 0 , 0) 0px -0.1em 0.2em ; word-break: normal ; padding: 1em&quot;&gt;&lt;span style=&quot;background-image: none ; box-sizing: border-box ; border-radius: 3px ; line-height: 1.5 ; text-shadow: rgb(0 , 0 , 0) 0px -0.1em 0.2em&quot;&gt;curl &lt;/span&gt;&lt;span class=&quot;token operator&quot; style=&quot;background-image: none ; box-sizing: border-box ; overflow-wrap: normal ; border-radius: 3px ; line-height: 1.5 ; text-shadow: rgb(0 , 0 , 0) 0px -0.1em 0.2em ; word-break: normal&quot;&gt;-&lt;/span&gt;&lt;span class=&quot;token constant&quot; style=&quot;background-image: none ; box-sizing: border-box ; overflow-wrap: normal ; border-radius: 3px ; line-height: 1.5 ; text-shadow: rgb(0 , 0 , 0) 0px -0.1em 0.2em ; word-break: normal&quot;&gt;X&lt;/span&gt;&lt;span style=&quot;background-image: none ; box-sizing: border-box ; border-radius: 3px ; line-height: 1.5 ; text-shadow: rgb(0 , 0 , 0) 0px -0.1em 0.2em&quot;&gt; &lt;/span&gt;&lt;span class=&quot;token constant&quot; style=&quot;background-image: none ; box-sizing: border-box ; overflow-wrap: normal ; border-radius: 3px ; line-height: 1.5 ; text-shadow: rgb(0 , 0 , 0) 0px -0.1em 0.2em ; word-break: normal&quot;&gt;GET&lt;/span&gt;&lt;span style=&quot;background-image: none ; box-sizing: border-box ; border-radius: 3px ; line-height: 1.5 ; text-shadow: rgb(0 , 0 , 0) 0px -0.1em 0.2em&quot;&gt; &lt;/span&gt;&lt;span class=&quot;token operator&quot; style=&quot;background-image: none ; box-sizing: border-box ; overflow-wrap: normal ; border-radius: 3px ; line-height: 1.5 ; text-shadow: rgb(0 , 0 , 0) 0px -0.1em 0.2em ; word-break: normal&quot;&gt;-&lt;/span&gt;&lt;span class=&quot;token constant&quot; style=&quot;background-image: none ; box-sizing: border-box ; overflow-wrap: normal ; border-radius: 3px ; line-height: 1.5 ; text-shadow: rgb(0 , 0 , 0) 0px -0.1em 0.2em ; word-break: normal&quot;&gt;H&lt;/span&gt;&lt;span style=&quot;background-image: none ; box-sizing: border-box ; border-radius: 3px ; line-height: 1.5 ; text-shadow: rgb(0 , 0 , 0) 0px -0.1em 0.2em&quot;&gt; &lt;/span&gt;&lt;span class=&quot;token string&quot; style=&quot;background-image: none ; box-sizing: border-box ; overflow-wrap: normal ; border-radius: 3px ; line-height: 1.5 ; text-shadow: rgb(0 , 0 , 0) 0px -0.1em 0.2em ; word-break: normal&quot;&gt;&#39;Authorization: Bearer $ACCESS_TOKEN&#39;&lt;/span&gt;&lt;span style=&quot;background-image: none ; box-sizing: border-box ; border-radius: 3px ; line-height: 1.5 ; text-shadow: rgb(0 , 0 , 0) 0px -0.1em 0.2em&quot;&gt; https&lt;/span&gt;&lt;span class=&quot;token punctuation&quot; style=&quot;background-image: none ; box-sizing: border-box ; overflow-wrap: normal ; border-radius: 3px ; line-height: 1.5 ; text-shadow: rgb(0 , 0 , 0) 0px -0.1em 0.2em ; word-break: normal&quot;&gt;:&lt;/span&gt;&lt;span class=&quot;token operator&quot; style=&quot;background-image: none ; box-sizing: border-box ; overflow-wrap: normal ; border-radius: 3px ; line-height: 1.5 ; text-shadow: rgb(0 , 0 , 0) 0px -0.1em 0.2em ; word-break: normal&quot;&gt;/&lt;/span&gt;&lt;span class=&quot;token operator&quot; style=&quot;background-image: none ; box-sizing: border-box ; overflow-wrap: normal ; border-radius: 3px ; line-height: 1.5 ; text-shadow: rgb(0 , 0 , 0) 0px -0.1em 0.2em ; word-break: normal&quot;&gt;/&lt;/span&gt;&lt;span style=&quot;background-image: none ; box-sizing: border-box ; border-radius: 3px ; line-height: 1.5 ; text-shadow: rgb(0 , 0 , 0) 0px -0.1em 0.2em&quot;&gt;api&lt;/span&gt;&lt;span class=&quot;token punctuation&quot; style=&quot;background-image: none ; box-sizing: border-box ; overflow-wrap: normal ; border-radius: 3px ; line-height: 1.5 ; text-shadow: rgb(0 , 0 , 0) 0px -0.1em 0.2em ; word-break: normal&quot;&gt;.&lt;/span&gt;&lt;span style=&quot;background-image: none ; box-sizing: border-box ; border-radius: 3px ; line-height: 1.5 ; text-shadow: rgb(0 , 0 , 0) 0px -0.1em 0.2em&quot;&gt;mercadolibre&lt;/span&gt;&lt;span class=&quot;token punctuation&quot; style=&quot;background-image: none ; box-sizing: border-box ; overflow-wrap: normal ; border-radius: 3px ; line-height: 1.5 ; text-shadow: rgb(0 , 0 , 0) 0px -0.1em 0.2em ; word-break: normal&quot;&gt;.&lt;/span&gt;&lt;span style=&quot;background-image: none ; box-sizing: border-box ; border-radius: 3px ; line-height: 1.5 ; text-shadow: rgb(0 , 0 , 0) 0px -0.1em 0.2em&quot;&gt;com&lt;/span&gt;&lt;span class=&quot;token operator&quot; style=&quot;background-image: none ; box-sizing: border-box ; overflow-wrap: normal ; border-radius: 3px ; line-height: 1.5 ; text-shadow: rgb(0 , 0 , 0) 0px -0.1em 0.2em ; word-break: normal&quot;&gt;/&lt;/span&gt;&lt;span style=&quot;background-image: none ; box-sizing: border-box ; border-radius: 3px ; line-height: 1.5 ; text-shadow: rgb(0 , 0 , 0) 0px -0.1em 0.2em&quot;&gt;orders&lt;/span&gt;&lt;span class=&quot;token operator&quot; style=&quot;background-image: none ; box-sizing: border-box ; overflow-wrap: normal ; border-radius: 3px ; line-height: 1.5 ; text-shadow: rgb(0 , 0 , 0) 0px -0.1em 0.2em ; word-break: normal&quot;&gt;/&lt;/span&gt;&lt;span style=&quot;background-image: none ; box-sizing: border-box ; border-radius: 3px ; line-height: 1.5 ; text-shadow: rgb(0 , 0 , 0) 0px -0.1em 0.2em&quot;&gt;$&lt;/span&gt;&lt;span class=&quot;token constant&quot; style=&quot;background-image: none ; box-sizing: border-box ; overflow-wrap: normal ; border-radius: 3px ; line-height: 1.5 ; text-shadow: rgb(0 , 0 , 0) 0px -0.1em 0.2em ; word-break: normal&quot;&gt;ORDER_ID&lt;/span&gt;&lt;/pre&gt;&lt;div style=&quot;text-align: left&quot;&gt;&lt;code class=&quot; language-javascript&quot; style=&quot;box-sizing: border-box ; overflow-wrap: normal ; background: none ; border-radius: 3px ; font-family: &amp;#34;consolas&amp;#34; , &amp;#34;monaco&amp;#34; , &amp;#34;andale mono&amp;#34; , &amp;#34;ubuntu mono&amp;#34; , monospace ; line-height: 1.5 ; text-shadow: rgb(0 , 0 , 0) 0px -0.1em 0.2em ; word-break: normal ; word-spacing: normal&quot;&gt;&lt;span class=&quot;token constant&quot; style=&quot;box-sizing: border-box ; color: rgb(228 , 24 , 92)&quot;&gt;&lt;br&gt;&lt;/span&gt;&lt;/code&gt;&lt;/div&gt;" style="text;html=1;strokeColor=none;fillColor=none;align=center;verticalAlign=middle;whiteSpace=wrap;rounded=0;" parent="1" vertex="1">
          <mxGeometry x="-310" y="260" width="690" height="50" as="geometry" />
        </mxCell>
        <mxCell id="U7Q0iTJeXvWdPwnpYMWT-5" style="edgeStyle=orthogonalEdgeStyle;rounded=0;orthogonalLoop=1;jettySize=auto;html=1;exitX=0.5;exitY=1;exitDx=0;exitDy=0;entryX=0.5;entryY=0;entryDx=0;entryDy=0;fontSize=14;" parent="1" source="U7Q0iTJeXvWdPwnpYMWT-1" target="U7Q0iTJeXvWdPwnpYMWT-2" edge="1">
          <mxGeometry relative="1" as="geometry" />
        </mxCell>
        <mxCell id="U7Q0iTJeXvWdPwnpYMWT-1" value="CORREIOS" style="rounded=0;whiteSpace=wrap;html=1;fontStyle=1;fontSize=14;" parent="1" vertex="1">
          <mxGeometry x="-760" y="440" width="120" height="60" as="geometry" />
        </mxCell>
        <mxCell id="U7Q0iTJeXvWdPwnpYMWT-2" value="EXITOINF" style="rounded=0;whiteSpace=wrap;html=1;fontSize=14;fontStyle=1" parent="1" vertex="1">
          <mxGeometry x="-760" y="695" width="120" height="60" as="geometry" />
        </mxCell>
        <mxCell id="U7Q0iTJeXvWdPwnpYMWT-3" value="SHOPP" style="rounded=0;whiteSpace=wrap;html=1;fontSize=14;fontStyle=1" parent="1" vertex="1">
          <mxGeometry x="140" y="850" width="120" height="60" as="geometry" />
        </mxCell>
        <mxCell id="U7Q0iTJeXvWdPwnpYMWT-4" value="MERCADO LIVRE" style="rounded=0;whiteSpace=wrap;html=1;fontSize=14;fontStyle=1" parent="1" vertex="1">
          <mxGeometry x="140" y="525" width="130" height="60" as="geometry" />
        </mxCell>
        <mxCell id="U7Q0iTJeXvWdPwnpYMWT-8" value="ALIEXPRESS" style="rounded=0;whiteSpace=wrap;html=1;fontSize=14;fontStyle=1" parent="1" vertex="1">
          <mxGeometry x="190" y="695" width="120" height="60" as="geometry" />
        </mxCell>
        <mxCell id="U7Q0iTJeXvWdPwnpYMWT-10" value="EVENTO DE NOTIFICAÇÃO" style="text;html=1;strokeColor=none;fillColor=none;align=center;verticalAlign=middle;whiteSpace=wrap;rounded=0;fontSize=14;fontStyle=1" parent="1" vertex="1">
          <mxGeometry x="50" y="690" width="160" height="30" as="geometry" />
        </mxCell>
        <mxCell id="U7Q0iTJeXvWdPwnpYMWT-25" value="" style="endArrow=none;html=1;rounded=0;fontSize=14;exitX=1;exitY=0.5;exitDx=0;exitDy=0;entryX=0;entryY=0.5;entryDx=0;entryDy=0;" parent="1" source="U7Q0iTJeXvWdPwnpYMWT-27" target="U7Q0iTJeXvWdPwnpYMWT-8" edge="1">
          <mxGeometry width="50" height="50" relative="1" as="geometry">
            <mxPoint x="-370" y="760" as="sourcePoint" />
            <mxPoint x="-320" y="710" as="targetPoint" />
          </mxGeometry>
        </mxCell>
        <mxCell id="U7Q0iTJeXvWdPwnpYMWT-26" value="" style="endArrow=none;html=1;rounded=0;fontSize=14;exitX=1;exitY=0.75;exitDx=0;exitDy=0;entryX=0;entryY=0.5;entryDx=0;entryDy=0;" parent="1" source="U7Q0iTJeXvWdPwnpYMWT-27" target="U7Q0iTJeXvWdPwnpYMWT-3" edge="1">
          <mxGeometry width="50" height="50" relative="1" as="geometry">
            <mxPoint x="-370" y="760" as="sourcePoint" />
            <mxPoint x="-320" y="710" as="targetPoint" />
          </mxGeometry>
        </mxCell>
        <mxCell id="U7Q0iTJeXvWdPwnpYMWT-27" value="WEBHOOK" style="rounded=0;whiteSpace=wrap;html=1;fontSize=14;fontStyle=1" parent="1" vertex="1">
          <mxGeometry x="-390" y="695" width="120" height="60" as="geometry" />
        </mxCell>
        <mxCell id="L0Q23ny4KrY_7NLOOcuO-38" value="Table" style="shape=table;startSize=30;container=1;collapsible=0;childLayout=tableLayout;fontStyle=1;align=center;fontSize=14;flipV=0;flipH=1;" vertex="1" parent="1">
          <mxGeometry x="-760" y="755" width="240" height="70" as="geometry" />
        </mxCell>
        <mxCell id="L0Q23ny4KrY_7NLOOcuO-61" style="shape=tableRow;horizontal=0;startSize=0;swimlaneHead=0;swimlaneBody=0;top=0;left=0;bottom=0;right=0;collapsible=0;dropTarget=0;fillColor=none;points=[[0,0.5],[1,0.5]];portConstraint=eastwest;fontSize=14;" vertex="1" parent="L0Q23ny4KrY_7NLOOcuO-38">
          <mxGeometry y="30" width="240" height="40" as="geometry" />
        </mxCell>
        <mxCell id="L0Q23ny4KrY_7NLOOcuO-65" value="&lt;b&gt;ID&lt;/b&gt;" style="shape=partialRectangle;html=1;whiteSpace=wrap;connectable=0;fillColor=none;top=0;left=0;bottom=0;right=0;overflow=hidden;fontSize=14;" vertex="1" parent="L0Q23ny4KrY_7NLOOcuO-61">
          <mxGeometry width="60" height="40" as="geometry">
            <mxRectangle width="60" height="40" as="alternateBounds" />
          </mxGeometry>
        </mxCell>
        <mxCell id="L0Q23ny4KrY_7NLOOcuO-62" value="&lt;b&gt;CODE&lt;/b&gt;" style="shape=partialRectangle;html=1;whiteSpace=wrap;connectable=0;fillColor=none;top=0;left=0;bottom=0;right=0;overflow=hidden;fontSize=14;" vertex="1" parent="L0Q23ny4KrY_7NLOOcuO-61">
          <mxGeometry x="60" width="60" height="40" as="geometry">
            <mxRectangle width="60" height="40" as="alternateBounds" />
          </mxGeometry>
        </mxCell>
        <mxCell id="L0Q23ny4KrY_7NLOOcuO-63" value="&lt;b&gt;STATUS&lt;/b&gt;" style="shape=partialRectangle;html=1;whiteSpace=wrap;connectable=0;fillColor=none;top=0;left=0;bottom=0;right=0;overflow=hidden;fontSize=14;" vertex="1" parent="L0Q23ny4KrY_7NLOOcuO-61">
          <mxGeometry x="120" width="60" height="40" as="geometry">
            <mxRectangle width="60" height="40" as="alternateBounds" />
          </mxGeometry>
        </mxCell>
        <mxCell id="L0Q23ny4KrY_7NLOOcuO-64" value="&lt;b&gt;DATA&lt;/b&gt;" style="shape=partialRectangle;html=1;whiteSpace=wrap;connectable=0;fillColor=none;top=0;left=0;bottom=0;right=0;overflow=hidden;fontSize=14;" vertex="1" parent="L0Q23ny4KrY_7NLOOcuO-61">
          <mxGeometry x="180" width="60" height="40" as="geometry">
            <mxRectangle width="60" height="40" as="alternateBounds" />
          </mxGeometry>
        </mxCell>
        <mxCell id="L0Q23ny4KrY_7NLOOcuO-52" value="" style="shape=partialRectangle;html=1;whiteSpace=wrap;connectable=0;fillColor=none;top=0;left=0;bottom=0;right=0;overflow=hidden;fontSize=14;" vertex="1" parent="1">
          <mxGeometry x="550" y="690" width="60" height="40" as="geometry">
            <mxRectangle width="60" height="40" as="alternateBounds" />
          </mxGeometry>
        </mxCell>
        <mxCell id="L0Q23ny4KrY_7NLOOcuO-66" value="Table" style="shape=table;startSize=30;container=1;collapsible=0;childLayout=tableLayout;fontStyle=1;align=center;fontSize=14;flipV=0;flipH=1;" vertex="1" parent="1">
          <mxGeometry x="-700" y="500" width="240" height="70" as="geometry" />
        </mxCell>
        <mxCell id="L0Q23ny4KrY_7NLOOcuO-67" style="shape=tableRow;horizontal=0;startSize=0;swimlaneHead=0;swimlaneBody=0;top=0;left=0;bottom=0;right=0;collapsible=0;dropTarget=0;fillColor=none;points=[[0,0.5],[1,0.5]];portConstraint=eastwest;fontSize=14;" vertex="1" parent="L0Q23ny4KrY_7NLOOcuO-66">
          <mxGeometry y="30" width="240" height="40" as="geometry" />
        </mxCell>
        <mxCell id="L0Q23ny4KrY_7NLOOcuO-68" value="&lt;b&gt;ID&lt;/b&gt;" style="shape=partialRectangle;html=1;whiteSpace=wrap;connectable=0;fillColor=none;top=0;left=0;bottom=0;right=0;overflow=hidden;fontSize=14;" vertex="1" parent="L0Q23ny4KrY_7NLOOcuO-67">
          <mxGeometry width="60" height="40" as="geometry">
            <mxRectangle width="60" height="40" as="alternateBounds" />
          </mxGeometry>
        </mxCell>
        <mxCell id="L0Q23ny4KrY_7NLOOcuO-69" value="&lt;b&gt;CODE&lt;/b&gt;" style="shape=partialRectangle;html=1;whiteSpace=wrap;connectable=0;fillColor=none;top=0;left=0;bottom=0;right=0;overflow=hidden;fontSize=14;" vertex="1" parent="L0Q23ny4KrY_7NLOOcuO-67">
          <mxGeometry x="60" width="60" height="40" as="geometry">
            <mxRectangle width="60" height="40" as="alternateBounds" />
          </mxGeometry>
        </mxCell>
        <mxCell id="L0Q23ny4KrY_7NLOOcuO-70" value="&lt;b&gt;STATUS&lt;/b&gt;" style="shape=partialRectangle;html=1;whiteSpace=wrap;connectable=0;fillColor=none;top=0;left=0;bottom=0;right=0;overflow=hidden;fontSize=14;" vertex="1" parent="L0Q23ny4KrY_7NLOOcuO-67">
          <mxGeometry x="120" width="60" height="40" as="geometry">
            <mxRectangle width="60" height="40" as="alternateBounds" />
          </mxGeometry>
        </mxCell>
        <mxCell id="L0Q23ny4KrY_7NLOOcuO-71" value="&lt;b&gt;DATA&lt;/b&gt;" style="shape=partialRectangle;html=1;whiteSpace=wrap;connectable=0;fillColor=none;top=0;left=0;bottom=0;right=0;overflow=hidden;fontSize=14;" vertex="1" parent="L0Q23ny4KrY_7NLOOcuO-67">
          <mxGeometry x="180" width="60" height="40" as="geometry">
            <mxRectangle width="60" height="40" as="alternateBounds" />
          </mxGeometry>
        </mxCell>
        <mxCell id="L0Q23ny4KrY_7NLOOcuO-74" value="&lt;b style=&quot;font-size: 16px&quot;&gt;{&lt;br&gt;&lt;span style=&quot;white-space: pre&quot;&gt;	&lt;/span&gt;&quot;id&quot;: 10,&lt;br&gt;&lt;span style=&quot;white-space: pre&quot;&gt;	&lt;/span&gt;&quot;code&quot;: &quot;&quot;,&lt;br&gt;&lt;span style=&quot;white-space: pre&quot;&gt;	&lt;/span&gt;&quot;status&quot;: &quot;&quot;,&lt;br&gt;&lt;span style=&quot;white-space: pre&quot;&gt;	&lt;/span&gt;&quot;data&quot;: &quot;&quot;&lt;br&gt;}&lt;/b&gt;" style="text;html=1;strokeColor=none;fillColor=none;align=left;verticalAlign=middle;whiteSpace=wrap;rounded=0;fontSize=14;" vertex="1" parent="1">
          <mxGeometry x="-170" y="520" width="170" height="100" as="geometry" />
        </mxCell>
        <mxCell id="L0Q23ny4KrY_7NLOOcuO-75" value="" style="endArrow=classic;html=1;rounded=0;fontSize=16;entryX=1.008;entryY=1.014;entryDx=0;entryDy=0;entryPerimeter=0;exitX=0;exitY=1;exitDx=0;exitDy=0;" edge="1" parent="1" source="U7Q0iTJeXvWdPwnpYMWT-3" target="L0Q23ny4KrY_7NLOOcuO-61">
          <mxGeometry width="50" height="50" relative="1" as="geometry">
            <mxPoint x="-210" y="880" as="sourcePoint" />
            <mxPoint x="-160" y="830" as="targetPoint" />
          </mxGeometry>
        </mxCell>
        <mxCell id="L0Q23ny4KrY_7NLOOcuO-76" value="&lt;b&gt;CLIENTE FAZ POST PARA MAIS DETALHES&lt;/b&gt;" style="text;html=1;strokeColor=none;fillColor=none;align=center;verticalAlign=middle;whiteSpace=wrap;rounded=0;fontSize=16;" vertex="1" parent="1">
          <mxGeometry x="-355" y="860" width="170" height="100" as="geometry" />
        </mxCell>
        <mxCell id="L0Q23ny4KrY_7NLOOcuO-77" value="EXIT RECEBE, SALVA NO DB E DISPARA WEBHOOK" style="text;html=1;strokeColor=none;fillColor=none;align=center;verticalAlign=middle;whiteSpace=wrap;rounded=0;fontSize=16;fontStyle=1" vertex="1" parent="1">
          <mxGeometry x="-710" y="630" width="280" height="40" as="geometry" />
        </mxCell>
        <mxCell id="L0Q23ny4KrY_7NLOOcuO-78" value="" style="endArrow=classic;html=1;rounded=0;fontSize=16;entryX=0;entryY=0.5;entryDx=0;entryDy=0;exitX=1;exitY=0.25;exitDx=0;exitDy=0;" edge="1" parent="1" source="U7Q0iTJeXvWdPwnpYMWT-27" target="U7Q0iTJeXvWdPwnpYMWT-4">
          <mxGeometry width="50" height="50" relative="1" as="geometry">
            <mxPoint x="-120" y="740" as="sourcePoint" />
            <mxPoint x="-70" y="690" as="targetPoint" />
          </mxGeometry>
        </mxCell>
        <mxCell id="L0Q23ny4KrY_7NLOOcuO-79" value="" style="endArrow=classic;html=1;rounded=0;fontSize=16;exitX=1;exitY=0.5;exitDx=0;exitDy=0;entryX=0;entryY=0.5;entryDx=0;entryDy=0;" edge="1" parent="1" source="U7Q0iTJeXvWdPwnpYMWT-2" target="U7Q0iTJeXvWdPwnpYMWT-27">
          <mxGeometry width="50" height="50" relative="1" as="geometry">
            <mxPoint x="-300" y="690" as="sourcePoint" />
            <mxPoint x="-250" y="640" as="targetPoint" />
          </mxGeometry>
        </mxCell>
      </root>
    </mxGraphModel>
  </diagram>
</mxfile>
